<mxfile host="app.diagrams.net" agent="Mozilla/5.0 (Macintosh; Intel Mac OS X 10_15_7) AppleWebKit/537.36 (KHTML, like Gecko) Chrome/131.0.0.0 Safari/537.36" version="25.0.3">
  <diagram name="Page-1" id="w69v8hIs-b2CkbfmH0fT">
    <mxGraphModel dx="745" dy="556" grid="1" gridSize="10" guides="1" tooltips="1" connect="1" arrows="1" fold="1" page="1" pageScale="1" pageWidth="850" pageHeight="1100" math="0" shadow="0">
      <root>
        <mxCell id="0" />
        <mxCell id="1" parent="0" />
        <mxCell id="EX692iSGOH4uSa8Eqj_N-2" value="arXiv" style="ellipse;whiteSpace=wrap;html=1;fillColor=#fff2cc;strokeColor=#d6b656;" vertex="1" parent="1">
          <mxGeometry x="370" y="120" width="120" height="80" as="geometry" />
        </mxCell>
        <mxCell id="EX692iSGOH4uSa8Eqj_N-3" value="articles database" style="shape=cylinder3;whiteSpace=wrap;html=1;boundedLbl=1;backgroundOutline=1;size=15;fillColor=#d5e8d4;strokeColor=#82b366;" vertex="1" parent="1">
          <mxGeometry x="390" y="410" width="80" height="110" as="geometry" />
        </mxCell>
        <mxCell id="EX692iSGOH4uSa8Eqj_N-5" value="fetch documents&amp;nbsp;" style="whiteSpace=wrap;html=1;aspect=fixed;fillColor=#dae8fc;strokeColor=#6c8ebf;" vertex="1" parent="1">
          <mxGeometry x="390" y="270" width="80" height="80" as="geometry" />
        </mxCell>
        <mxCell id="EX692iSGOH4uSa8Eqj_N-6" value="" style="endArrow=classic;html=1;rounded=0;entryX=0.674;entryY=1.004;entryDx=0;entryDy=0;entryPerimeter=0;" edge="1" parent="1" target="EX692iSGOH4uSa8Eqj_N-2">
          <mxGeometry width="50" height="50" relative="1" as="geometry">
            <mxPoint x="450" y="270" as="sourcePoint" />
            <mxPoint x="450" y="220" as="targetPoint" />
          </mxGeometry>
        </mxCell>
        <mxCell id="EX692iSGOH4uSa8Eqj_N-7" value="keyword query" style="text;html=1;align=center;verticalAlign=middle;whiteSpace=wrap;rounded=0;" vertex="1" parent="1">
          <mxGeometry x="470" y="230" width="60" height="30" as="geometry" />
        </mxCell>
        <mxCell id="EX692iSGOH4uSa8Eqj_N-9" value="" style="endArrow=classic;html=1;rounded=0;exitX=0.372;exitY=0.985;exitDx=0;exitDy=0;exitPerimeter=0;entryX=0.317;entryY=-0.047;entryDx=0;entryDy=0;entryPerimeter=0;" edge="1" parent="1" source="EX692iSGOH4uSa8Eqj_N-2" target="EX692iSGOH4uSa8Eqj_N-5">
          <mxGeometry width="50" height="50" relative="1" as="geometry">
            <mxPoint x="420" y="220" as="sourcePoint" />
            <mxPoint x="450" y="370" as="targetPoint" />
          </mxGeometry>
        </mxCell>
        <mxCell id="EX692iSGOH4uSa8Eqj_N-10" value="documents" style="text;html=1;align=center;verticalAlign=middle;whiteSpace=wrap;rounded=0;" vertex="1" parent="1">
          <mxGeometry x="330" y="230" width="60" height="30" as="geometry" />
        </mxCell>
        <mxCell id="EX692iSGOH4uSa8Eqj_N-11" value="" style="endArrow=classic;html=1;rounded=0;exitX=0.5;exitY=1;exitDx=0;exitDy=0;entryX=0.5;entryY=0;entryDx=0;entryDy=0;entryPerimeter=0;" edge="1" parent="1" source="EX692iSGOH4uSa8Eqj_N-5" target="EX692iSGOH4uSa8Eqj_N-3">
          <mxGeometry width="50" height="50" relative="1" as="geometry">
            <mxPoint x="380" y="310" as="sourcePoint" />
            <mxPoint x="270" y="320" as="targetPoint" />
          </mxGeometry>
        </mxCell>
        <mxCell id="EX692iSGOH4uSa8Eqj_N-12" value="send full docs" style="text;html=1;align=center;verticalAlign=middle;whiteSpace=wrap;rounded=0;" vertex="1" parent="1">
          <mxGeometry x="440" y="360" width="80" height="30" as="geometry" />
        </mxCell>
        <mxCell id="EX692iSGOH4uSa8Eqj_N-13" value="doc parsing" style="whiteSpace=wrap;html=1;aspect=fixed;fillColor=#dae8fc;strokeColor=#6c8ebf;" vertex="1" parent="1">
          <mxGeometry x="210" y="425" width="80" height="80" as="geometry" />
        </mxCell>
        <mxCell id="EX692iSGOH4uSa8Eqj_N-14" value="" style="endArrow=classic;html=1;rounded=0;exitX=0;exitY=0.5;exitDx=0;exitDy=0;exitPerimeter=0;entryX=1;entryY=0.5;entryDx=0;entryDy=0;" edge="1" parent="1" source="EX692iSGOH4uSa8Eqj_N-3" target="EX692iSGOH4uSa8Eqj_N-13">
          <mxGeometry width="50" height="50" relative="1" as="geometry">
            <mxPoint x="400" y="420" as="sourcePoint" />
            <mxPoint x="450" y="370" as="targetPoint" />
          </mxGeometry>
        </mxCell>
        <mxCell id="EX692iSGOH4uSa8Eqj_N-16" value="sends relevant sections" style="text;html=1;align=center;verticalAlign=middle;whiteSpace=wrap;rounded=0;" vertex="1" parent="1">
          <mxGeometry x="300" y="504" width="80" height="30" as="geometry" />
        </mxCell>
        <mxCell id="EX692iSGOH4uSa8Eqj_N-17" value="" style="endArrow=classic;html=1;rounded=0;exitX=1;exitY=0.75;exitDx=0;exitDy=0;entryX=0;entryY=0;entryDx=0;entryDy=74.99999999999999;entryPerimeter=0;" edge="1" parent="1" source="EX692iSGOH4uSa8Eqj_N-13" target="EX692iSGOH4uSa8Eqj_N-3">
          <mxGeometry width="50" height="50" relative="1" as="geometry">
            <mxPoint x="260" y="640" as="sourcePoint" />
            <mxPoint x="290" y="560" as="targetPoint" />
          </mxGeometry>
        </mxCell>
        <mxCell id="EX692iSGOH4uSa8Eqj_N-18" value="gets full text" style="text;html=1;align=center;verticalAlign=middle;whiteSpace=wrap;rounded=0;" vertex="1" parent="1">
          <mxGeometry x="300" y="425" width="80" height="30" as="geometry" />
        </mxCell>
        <mxCell id="EX692iSGOH4uSa8Eqj_N-19" value="summariser" style="whiteSpace=wrap;html=1;aspect=fixed;fillColor=#dae8fc;strokeColor=#6c8ebf;" vertex="1" parent="1">
          <mxGeometry x="570" y="424" width="80" height="80" as="geometry" />
        </mxCell>
        <mxCell id="EX692iSGOH4uSa8Eqj_N-20" value="" style="endArrow=classic;html=1;rounded=0;exitX=1;exitY=0.75;exitDx=0;exitDy=0;entryX=0;entryY=0;entryDx=0;entryDy=74.99999999999999;entryPerimeter=0;" edge="1" parent="1">
          <mxGeometry width="50" height="50" relative="1" as="geometry">
            <mxPoint x="470" y="463.63" as="sourcePoint" />
            <mxPoint x="570" y="463.63" as="targetPoint" />
          </mxGeometry>
        </mxCell>
        <mxCell id="EX692iSGOH4uSa8Eqj_N-21" value="sends relevant sections" style="text;html=1;align=center;verticalAlign=middle;whiteSpace=wrap;rounded=0;" vertex="1" parent="1">
          <mxGeometry x="480" y="412" width="80" height="30" as="geometry" />
        </mxCell>
        <mxCell id="EX692iSGOH4uSa8Eqj_N-22" value="" style="endArrow=classic;html=1;rounded=0;exitX=0;exitY=0.5;exitDx=0;exitDy=0;exitPerimeter=0;entryX=1;entryY=0.5;entryDx=0;entryDy=0;" edge="1" parent="1">
          <mxGeometry width="50" height="50" relative="1" as="geometry">
            <mxPoint x="570" y="484" as="sourcePoint" />
            <mxPoint x="470" y="484" as="targetPoint" />
          </mxGeometry>
        </mxCell>
        <mxCell id="EX692iSGOH4uSa8Eqj_N-23" value="gets summaries" style="text;html=1;align=center;verticalAlign=middle;whiteSpace=wrap;rounded=0;" vertex="1" parent="1">
          <mxGeometry x="480" y="504" width="80" height="30" as="geometry" />
        </mxCell>
        <mxCell id="EX692iSGOH4uSa8Eqj_N-24" value="model" style="ellipse;whiteSpace=wrap;html=1;aspect=fixed;fillColor=#e1d5e7;strokeColor=#9673a6;" vertex="1" parent="1">
          <mxGeometry x="700" y="424" width="80" height="80" as="geometry" />
        </mxCell>
        <mxCell id="EX692iSGOH4uSa8Eqj_N-25" value="" style="endArrow=classic;startArrow=classic;html=1;rounded=0;exitX=0;exitY=0.5;exitDx=0;exitDy=0;entryX=1;entryY=0.5;entryDx=0;entryDy=0;" edge="1" parent="1" source="EX692iSGOH4uSa8Eqj_N-24" target="EX692iSGOH4uSa8Eqj_N-19">
          <mxGeometry width="50" height="50" relative="1" as="geometry">
            <mxPoint x="520" y="520" as="sourcePoint" />
            <mxPoint x="680" y="470" as="targetPoint" />
          </mxGeometry>
        </mxCell>
      </root>
    </mxGraphModel>
  </diagram>
</mxfile>
